# xmcd CD database file
#
# Track frame offsets:
#	182
#	19657
#	32757
#	49582
#
# Disc length: 955 seconds
#
# Revision: 0
# Processed by: cddbd v1.5.2PL0 Copyright (c) Steve Scherf et al.
# Submitted via: CDex 1.70beta2
#
DISCID=2603b904
DTITLE=Morrison Van - Whenever God Shines His Light [Maxi]
DYEAR=1989
DGENRE=Blues
TTITLE0=Whenever God Shines His Light [w. Cliff Richard] [7" Version]
TTITLE1=I´d Love To Write Another Song
TTITLE2=Cry For Home
TTITLE3=Whenever God Shines His Light
EXTD=YEAR: 1989
EXTT0=
EXTT1=
EXTT2=
EXTT3=
PLAYORDER=
